<svg width="490" height="517" viewBox="0 0 490 517" fill="none" xmlns="http://www.w3.org/2000/svg"><g opacity=".5" fill-rule="evenodd" clip-rule="evenodd" fill="#0D345F"><path d="M24.788 188.304c1.232 0 2.875-1.644 1.095-2.739-7.258-3.424-7.943-8.08-8.764-7.259-.548.959 1.506 9.587 7.669 9.998zm22.596-42.454c-.274-5.478-3.013-8.354-2.739-14.38-2.739-2.191-6.984-4.656-10.956-2.465-.274 2.328-2.054 3.972-3.834 4.656.958 8.902 11.23 8.628 17.529 12.189zm12.6 2.739c6.299-1.781 6.436-11.778 4.382-17.119-.411.274-.96.274-1.644 0-1.643 5.067-1.917 11.367-2.739 17.119zm11.092 43.001c2.191-.411 3.56-1.506 3.835-3.834-2.192-5.889-8.08-8.08-11.504-12.599.137-7.122-3.424-11.778-4.93-18.762-2.465-10.682 3.56-21.912 0-29.718-.685-.548-1.917-1.78-3.15-1.507-2.739.822-3.013.959-5.752.822-1.095 0-1.917.685-2.054 1.096-1.917 8.764 3.56 15.749 2.739 23.692-.274 3.287-2.739 6.162-2.739 9.312 0 7.532 7.806 15.886 2.191 24.24-5.752 6.574-11.777-.411-19.31 0 .411 2.739.411 4.382-2.739 6.574 2.466 3.286 4.52 6.71 8.765 7.121 9.724.958 14.243-10.271 20.405-10.956 7.259-.822 7.67 7.121 16.023 7.669 1.096-.685-1.506-2.191-1.78-3.15zm10.956 124.212c3.287-1.232 8.217-13.695.959-12.599-2.329 1.095 1.232 8.354-.96 12.599zm3.834-15.749c4.52-14.379-11.777-16.297-12.599-28.622 2.054-4.245 6.163-6.3 13.147-5.478-.548-3.698-1.917-6.437-2.191-10.408-9.175.822-20.268 2.328-28.074.548-14.106-3.287-20.68-28.759-33.963-27.253 1.232 3.424 1.37 6.574-3.561 8.354 3.013 4.93 9.997 3.971 14.927 5.752 5.889 2.054 8.902 6.847 12.052 10.956.821.958 3.834-.137 3.286 2.191-13.147 6.299-18.761-10.956-29.17-5.478 2.466 2.739-2.19 8.354 3.835 13.695 8.902-5.478 19.995 1.369 29.718 0-6.71 4.93-18.488-2.192-25.473 1.506-.821 4.519 3.424 6.984.137 12.736 8.902 9.45 17.804-6.847 28.622-7.121 4.794-.137 11.093 3.971 13.148 7.121 4.519 6.711-.411 15.612 4.93 22.46.821.684 1.78.684 2.602.411 2.876-.822 6.3-2.055 8.627-1.37zm20.406-107.915c-4.657-2.191-17.804 0-20.406-6.026-3.971 2.602-5.204-1.917-9.312-2.191-.685 1.781 5.34 7.532-1.096 7.669 3.15 3.15.411 5.341-.547 8.765 3.56.822 5.614-1.37 7.669-.548 1.095 4.382 2.054 11.915-.548 15.475 3.287 1.918 6.436 1.507 8.49 4.657 19.858 1.78 6.848-16.571 15.75-27.801zm11.503 228.977c-3.834-1.369-7.532 1.917-8.764 4.93 2.054.685 4.245 1.233 7.121 1.096.685-1.78.822-4.382 1.643-6.026zm.548 19.858c.548-2.876.548-8.628-2.739-10.408-3.971 3.423-10.271 4.382-10.956 10.955 3.424-1.095 8.628-3.149 13.695-.547zm4.93-27.527c-3.971.274-7.258 1.233-8.217 4.382 3.561 1.096 7.532-.137 8.217-4.382zm22.597-298.41c-2.328-3.834-5.889-6.299-10.408-8.764-3.561-1.918-10.682-3.972-13.695-6.026-3.561-2.465 0-6.163-3.287-13.969-1.369-3.287-5.067-4.656-4.382-9.723-3.972-2.191-9.45-.137-11.504 2.739-.411 5.889 2.054 11.914 2.739 14.927-3.424-3.15-3.971-10.27-4.382-14.927-16.023 1.643-29.718 26.157-15.612 37.387 1.37-10.134 9.586-20.953 20.405-14.928 13.01-6.573 23.555 6.3 32.457 12.052-13.558 1.643-21.638 8.764-31.909 13.695 15.338-1.918 27.526-7.122 39.578-12.463zm21.5 228.43c1.507-15.339-18.351-24.377-17.666-34.648.137-2.465 2.876-6.163 6.026-6.026 3.561.137 3.834 3.972 6.573 6.026 4.246-5.341.274-12.052-1.643-17.119 3.287 1.644 6.847.685 9.86-.548-2.602-2.875-7.121-3.834-7.669-8.764-9.449-1.917-19.173-3.561-29.718-4.383 3.424 6.848 6.711 20.132 2.739 29.17 1.644-11.777-1.506-23.281-6.573-30.265-10.819-.411-20.542-3.835-28.074-3.287v1.644c9.038 8.353 25.746 22.322 13.147 37.386 14.105 4.383 15.886-14.79 10.408-23.692 7.395 5.204 3.697 15.612 3.286 24.788-.684 14.653 6.574 25.061 20.406 28.074-3.561-6.71-10.545-18.762-4.93-27.526-5.068 16.16 9.038 18.077 18.077 23.829 2.602 1.643 3.56 2.739 5.751 5.341zm12.737-288.96c-3.424-7.396-6.3-15.339-11.504-20.954-.685 7.532-2.739 20.816-7.121 28.075 7.532 1.232 14.79-2.602 18.625-7.122zm23.007 184.468c4.519-5.204 1.232-17.392.548-24.24-1.37 2.466-2.328 3.15-3.972 2.876-2.465-.41-3.15-2.465-5.341-3.423 0 1.506-.274 3.149.548 3.834-2.602-.821-.822-6.025-4.382-6.025-.822 2.191-2.055 4.108-4.93 4.382 4.519 8.901 8.764 17.94 17.529 22.596zm6.984-51.218c0-2.191 3.835-8.765.137-8.217-1.232.137-.548 1.78-1.643 2.739.411-2.602-1.096-3.287-3.287-3.287.548 4.245 2.054 7.395 4.793 8.765zm5.752 20.953c.411-8.491 2.054-18.214-.548-23.692-3.15.548-1.917 4.656-4.245 6.025-3.698-1.095-4.793-5.477-7.943-7.121-2.602 1.644-3.287 5.067-6.026 6.574-1.917-2.191-2.602-5.067-4.793-7.122-.548-.547-.822-.958-1.369.137-.685 1.918-2.466 5.478-1.644 9.176 1.78 7.395 5.341 19.72 10.408 22.048 2.465-4.519 2.191-11.777 3.287-17.666 1.643 3.972 3.287 8.765 4.93 13.147 1.643 4.383 2.191 10.271 6.574 12.052 1.506-3.698 1.095-8.628 1.369-13.558zm6.574-22.049c.821-1.917.684-4.93 1.095-7.121-4.245-.274-3.15 1.506-4.382 2.465-.411-2.328-3.287-2.876-4.383-1.917 1.233 3.423 3.835 5.615 7.67 6.573zm5.478-27.526c.273-8.354-9.587-9.587-11.504-13.832 4.382.274 6.026 3.56 9.86 4.382 2.465-9.175-8.08-12.736-10.956-16.571 4.657 0 5.478 3.698 9.313 4.383 2.602-14.928-16.982-14.38-12.599-26.431.273-.822 3.149-1.78 3.286-3.835 0 .274-1.643-1.917-2.191-3.286-1.78-5.068-1.095-7.67 0-11.504-1.643-2.602-1.095-7.395-1.095-11.504-7.396.685-12.189 6.985-18.762 6.574 14.927-6.574 23.829-19.584 28.211-36.702-2.191-.137-2.191 3.013-3.972 2.602 3.424-6.026 6.163-15.475 4.931-24.24-13.558 9.175-22.46 23.007-37.387 30.813-.959 7.259-4.656 14.79-9.86 16.023 3.012-2.739 5.751-6.847 6.436-11.914-1.643.41-1.917 1.506-4.245 1.506 2.054-.822 2.876-4.382 3.149-6.984-7.943 4.519-15.064 7.258-31.771 5.34-2.055 1.096-5.204 3.972-7.67 2.74 1.37-.822 2.876-1.507 3.287-3.287-4.245 1.643-7.258 1.233-13.147 1.096-2.328 2.054-4.382 4.108-7.121 6.573-1.917 1.78-6.574 4.245-7.121 6.574-1.507 6.162 5.751 7.806 5.478 20.268 10.408 4.656 21.226 8.491 27.663 17.118 1.096 1.37 1.233 2.192 0 2.739-2.191 1.096-5.204.137-6.026 2.739 7.532 1.37 13.147 4.52 15.339 10.956-3.698-4.93-13.148-12.188-20.954-7.669 14.106-1.78 20.132 13.695 13.832 22.049-9.723 12.736-51.081 8.49-38.482 38.482 2.191-.137 2.876-1.917 4.93-2.191-4.656 5.204-12.873 11.367-13.147 22.596 0 3.013 1.506 5.889 1.096 8.765-1.233 8.354-10.135 10.956-18.215 7.669 2.055 8.628 14.243 5.478 19.858 2.191-2.876 3.287-6.574 5.889-13.147 5.478 5.615 6.984 17.666-.685 23.692-5.478 2.465-1.917 3.697-4.656 4.93-6.026-4.245 16.297-29.307 11.778-30.266 31.362 10.272-1.096 17.667-5.067 26.979-7.122.411-1.78 1.096-3.286 2.191-4.382.685 1.643-1.232 4.108 0 3.835 11.778-1.644 19.858-6.985 27.527-12.6.137-9.038 1.506-16.844 8.217-19.309 2.328-.137 1.643 2.739 4.382 2.191 6.437-6.985-5.752-12.736-7.121-16.571-3.287-9.175 7.943-19.994 16.023-19.31-1.37-7.532 2.191-13.147 8.354-12.188 9.586-14.243 25.609 1.37 41.221-1.506 1.78-.274 3.15-1.096 6.574-2.602zm6.025 23.144c.548-1.644 2.054-4.656.548-6.574-3.287-.137-1.233 2.465-2.328 3.424-.959-1.78-2.739-1.369-4.382-1.233.137 3.561 3.149 3.835 6.162 4.383zm5.067 65.461c1.644-5.889-.821-15.201-2.054-20.131-.959 1.369-2.328 3.012-3.287 2.876-5.888-.548-9.86-16.708-14.516-22.871-1.096 5.615-1.096 12.462-2.876 17.256 0 .137-.959-.274-1.096-.137-.137.137.548.821.685.958 5.204 6.163 12.052 17.941 23.144 22.049zm-8.901-91.344c9.86-6.163 12.188-19.858 16.57-31.361-6.847 5.751-11.777 13.147-18.761 18.761 2.191 4.383-1.233 8.765 2.191 12.6zm20.953 67.104c-1.644-16.981-7.669-29.718-17.119-39.03-4.108-.411-4.382-1.643-7.669-2.739-.411 2.876-.685 6.3-2.739 7.121-1.095.548-3.424-.684-4.519-1.095.685 15.338 5.889 32.046 14.516 41.358 6.437-9.312-1.643-23.281-2.191-30.813 5.341 9.449 9.039 20.816 19.721 25.198zm-2.739 48.48c.411-8.628-6.3-14.517-9.313-21.501-1.506-.274-2.739-.411-5.204-1.78-7.258-5.889-18.351-17.119-24.65-29.033-1.644-3.15-.822-4.931-3.835-7.669-.137 2.602 1.37 6.025 1.78 10.134 8.491 11.503 16.708 21.774 25.747 32.867-9.724-8.354-15.886-19.994-25.336-28.622-.137 4.245.548 9.313-1.095 12.051 12.736 12.326 24.787 25.61 41.906 33.553zm7.669-106.272c.137-3.287-1.917-4.793-2.465-7.395-2.465 1.095-1.37 1.506-2.739 3.424-1.096 1.643-1.507 1.78-2.602 3.56 2.876 0 5.478 1.644 7.806.411zm6.71-10.956c-1.232-3.013-2.465-5.615-5.752-6.573-.273 1.917.411 3.287.822 4.656-2.602-.548-3.424.822-3.287 3.013 3.013-.137 6.574.411 8.217-1.096zm-1.643-13.284c-2.054-.137-3.287 1.37-3.424 3.287 2.602.548 7.395-.959 7.669-4.382-2.191-.411-5.888-6.163-6.573-1.096.137 1.37 1.78 1.096 2.328 2.191zm9.312 68.337c-4.93-15.338-13.694-26.705-22.596-37.934-.411-.548-1.096-.822-1.096 0v5.478c-.547 2.465-1.369 1.917-3.286 1.643-2.192-.548-3.698-1.917-6.026-2.191.548 3.15-.959 4.108-1.096 6.573 10.545 9.45 19.447 20.816 34.1 26.431zm-5.478 41.222c.411-8.628-2.875-14.928-5.477-21.501-1.644-3.972-2.739-8.902-6.026-10.956.411 3.013-.137 5.067-.959 6.847-.137.274-1.095.137-1.369.137s.411.822.684 1.37c1.507 2.465 3.835 5.341 3.287 8.217-3.56-8.217-10.819-12.736-17.118-18.214 0 9.449 7.395 15.475 12.051 20.953 4.656 5.341 8.354 12.188 14.927 13.147zm7.122 127.224c-6.437-9.586-4.519-20.268-7.669-30.265-5.889-18.214-29.307-14.517-52.314-16.023-7.67-.548-12.326 2.602-19.31 7.669-4.519 3.287-9.587 7.806-11.504 10.408-14.105 18.899 22.323 30.813 12.599 46.836-3.012 4.109-10.545 4.794-15.201 6.711.685 2.054 5.341.685 5.204 1.506-8.901 3.287-14.242 13.558-24.787 12.052-4.93-.685-7.532-6.848-12.052-9.313-4.519-2.465-8.901.822-15.338-.274-1.917-.137-3.424.411-2.739 3.013 4.519-1.095 8.902-1.369 11.504 1.644-4.383-2.055-11.367-.959-13.147 2.738 2.191.685 5.341.548 6.573 2.192-8.217-2.192-15.338 1.095-14.927 9.312 4.93-1.506 10.956-4.382 15.475-.548-6.163-1.232-13.558-.274-15.475 4.383 2.465 3.834 2.739 9.449.548 13.831 5.888 9.861 18.214 2.055 29.717 3.835 7.533 1.232 10.682 4.93 18.214 3.287 11.778-2.602 19.584-17.94 29.17-25.336 3.424-2.602 6.985-5.204 10.408-7.121 8.628-4.793 16.845-5.341 19.995-11.23.274-.548.411-.958.411-1.369 1.232-9.997-4.52-13.01-5.478-20.953 1.506-2.876 5.889-2.876 9.86-3.287 1.78-1.917-3.15-3.15-1.643-4.93 5.067 1.232 9.312 3.15 16.023 2.739-.685-3.287-5.067-3.013-6.026-6.026 8.217 3.561 20.131 6.3 31.909 4.519zm2.739-251.025c-1.507-4.93-11.367-9.861-12.052-1.644.822 1.096 3.287.685 4.383 1.644-1.644 0-2.739.274-4.931 0-1.232 1.506-1.917 3.56-2.191 6.025 5.067.274 12.189-2.054 14.791-6.025zm-3.287-78.198c.274-2.054-.685-2.876-1.643 0-9.313 31.635-25.884 56.012-47.932 74.911 4.519 3.013 4.519 11.641 5.478 16.571 10.682-8.491 20.679-19.858 26.02-36.155.411-1.232.137-.547 1.232-3.971 1.233-4.793 3.972-5.752 5.204-7.67 7.396-11.777 8.491-27.937 11.641-43.686zm12.051 141.468c-4.519-12.189-15.475-17.804-24.239-25.883-.411-.411-1.233-.822-1.096 0 .411 1.643.274 3.012-.548 3.286-2.054.959-6.847-.548-7.669 1.644 7.395 10.819 18.351 18.077 33.552 20.953zm-18.077 31.909c4.93 4.245 8.902 10.818 16.571 9.86-1.096-8.628-5.341-14.106-8.217-20.953-.137-.274-.548-1.917-.822-1.781-.273.137-.273 2.329-.547 2.329-2.602.41-4.794-.548-7.396-1.096 1.37 4.108 4.931 6.163 6.574 9.86-8.354-7.943-14.517-18.077-25.335-23.692 1.506 4.93 3.834 9.039 5.477 13.832 4.109 4.656 9.176 7.669 13.695 11.641zm-14.927 47.384c11.093 3.56 20.679 11.503 34.1 10.955-4.519-11.229-13.558-18.077-20.405-26.978-11.915-3.835-15.612-16.023-24.24-23.145 1.643 17.53 16.297 25.199 23.144 35.744-7.806-6.163-14.105-13.695-20.405-21.501-4.109 9.176 7.806 14.79 7.806 24.925zm15.475-105.176c6.574 3.56 13.832 7.806 22.596 7.121-4.382-10.956-16.022-18.488-25.883-23.692-.548-.274-1.232-.411-1.095 0 .958 2.739 3.697 3.56 3.834 7.121-.958 3.15-6.162 1.917-8.764 3.287 1.095 3.834 6.025 4.382 9.312 6.163zm37.387 113.94c-2.465-17.803-14.654-30.402-23.692-43.549-8.354-1.781-11.641-8.491-18.762-11.504 4.93 9.86 12.325 17.119 17.666 26.431-6.162-6.026-9.312-14.927-16.57-19.857 1.78 6.847 6.984 15.064 4.382 22.596 9.997 11.093 18.488 23.418 36.976 25.883zm-1.096-61.626c-2.191-11.504-9.86-17.667-16.023-25.336-.274-.274-.41-.684-.41-.548-.137.137-.137 1.096-.274 1.096-3.013 1.233-5.341.274-9.176 0 2.191 3.561 7.532 6.847 8.217 9.86-7.806-6.162-15.475-15.338-24.788-18.214 5.204 5.615 6.848 14.654 12.189 20.405 5.889 6.574 20.679 12.463 30.265 12.737zm1.644 259.79c-.411-3.698 4.93-7.258 1.643-8.765-2.876 1.507-7.121 3.972-4.93 8.765h3.287zm-4.383 9.449c1.507.548 3.698-2.465 6.574-2.191-.137-2.191-1.096-3.697-1.644-5.478-3.56.548-4.793 3.561-4.93 7.669zm12.052-227.47c-1.37-15.338-7.806-26.842-11.778-39.578-5.067-.411-10.956-3.287-14.105-3.698 4.108 7.258 10.545 16.023 12.188 24.103-4.793-9.586-10.134-15.749-15.064-25.335-2.328-1.233-3.424-2.191-6.985-3.835 2.465 7.669 9.313 14.654 7.532 24.103 0 .274-.958.411-1.506.411-.411 0 .685.958 1.096 1.369 8.49 8.491 13.694 20.406 28.622 22.46zm-5.478-228.977c1.232-4.52 2.328-9.313 1.643-13.147-1.78 3.834-2.876 6.573-4.382 9.86-11.093 23.966-27.253 41.906-39.441 64.776 1.095.137 3.561-1.37 6.573-2.19 7.532-11.641 15.065-21.775 21.912-33.964-4.656 12.6-12.462 22.734-19.31 33.142 11.367-2.602 13.558-8.354 18.214-16.708 5.341-9.723 7.806-16.57 10.956-28.074 1.233-4.657 2.739-9.45 3.835-13.695zm11.64 462.473c-6.847-11.23-17.118 8.08-8.216 12.599 0-6.847 4.656-9.175 8.216-12.599zm0-240.617c-1.643-13.558-6.984-23.419-13.284-32.457-.958.411-1.232.274-2.465.137 0 .411 0 .821.274 1.506 1.918 4.93 5.204 10.408 7.122 16.571 1.78 5.067 1.643 13.284 8.353 14.243zm-1.78-206.929c.137-.959.137-1.917-1.232-.137-3.424 4.245-16.982 24.514-26.294 38.072 10.134-1.233 12.873-7.806 17.666-15.475 4.793-7.533 8.765-13.148 9.86-22.46zm-7.669 140.372c6.984 6.025 15.475 13.558 26.431 13.695-6.847-6.574-12.599-14.106-26.431-13.695zm26.431 29.717c-5.752-13.01-17.256-20.131-29.17-26.978 9.449 9.312 12.188 25.335 29.17 26.978zm-10.408 20.269c.411-10.819-4.519-21.227-8.217-29.718-10.819-13.421-20.953-27.526-39.578-33.004 2.876 5.614 9.313 7.669 13.832 12.051 8.764 9.039 15.886 20.405 21.501 30.813-8.765-13.968-18.351-27.115-31.909-36.291 6.299 10.408 18.762 19.036 23.692 31.909 4.108 11.504 9.997 21.501 20.679 24.24zm1.095-12.599c.274-2.465.685-3.972 1.507-7.533-2.191-.821-2.602-1.095-4.245-2.054.273 3.698 1.917 6.3 2.738 9.587zm2.739 290.74c-.958-5.067 2.055-9.312 4.931-12.051-.137-4.656-5.341-5.752-9.861-4.383-2.191 5.889-1.643 15.749 4.93 16.434zm3.561-308.818c.411-.821.822-1.78 1.78-3.149-.958-.411-2.739-.274-4.108-.274.411 1.917 1.096 2.465 2.328 3.423zm19.036-32.045c-2.328-1.918-8.491-4.246-10.956-3.287-15.612 6.026-33.689 2.739-50.671 5.478 8.354 3.834 26.02 1.095 37.387 2.191-9.038 2.876-22.733.137-31.361 2.191 15.201 8.08 41.084 3.287 55.601-6.573zm-3.287-141.468c2.054-5.478 4.382-8.627 3.287-12.599-16.571 19.036-35.607 38.483-47.932 59.983 4.656-.821 7.121-2.602 12.599-3.834 4.793-8.08 9.861-15.886 16.023-22.597-4.519 7.122-9.586 13.558-13.284 21.501 5.889-1.643 8.628-2.876 14.38-4.52 5.478-12.05 10.271-25.471 14.927-37.934zm17.529 77.102c-4.656-3.013-12.462-2.602-19.857-1.643-15.475 2.054-32.594 4.519-44.508 3.423-5.478 3.287-9.039 2.739-11.641 4.93 12.189.137 32.731-2.054 42.317-1.643-13.284 1.507-26.02 3.287-39.715 3.835-8.764.411-19.446-1.781-22.596 2.739 3.561 2.191 8.354 3.423 8.765 8.764 15.064.685 26.841-.684 42.453 0-15.064 1.644-31.087 2.739-44.645 1.644-2.739 3.013-7.395 4.382-11.503 6.025 4.656 9.039 23.281 3.287 31.361 7.669-5.204.274-10.545-.821-16.571-1.095-5.204-.274-12.051-2.191-13.832 2.739 13.558 2.191 23.829 3.971 36.292 3.287 4.108-.274 10.682-.274 13.831-3.287-8.764-8.354-21.774-5.341-34.237-7.806 18.899-1.37 38.072-1.781 54.506-6.026 3.286-.959 5.615-1.917 6.847-4.93-3.013-7.669-13.695-3.835-25.472-3.287-8.628.411-16.023.548-23.144-.548 10.545-.547 21.637-.684 31.908-1.643 16.023-1.506 30.814-4.793 39.441-13.147zm13.284 42.865c-19.035-7.258-43.138 2.876-67.104 4.93-10.545.959-21.638-.274-31.361.548 2.191 2.465 4.245 3.834 6.436 6.025 21.501-.41 45.604-3.423 62.449-4.93-19.858 3.835-36.839 6.3-60.805 6.711 1.232 1.78 2.465 3.56 3.423 6.436 31.088.411 67.79-1.917 86.962-19.72zm-14.927-49.986c5.889-1.644 13.832-4.93 15.886-9.86-13.695-4.93-35.743-2.466-43.002 6.025 4.657 1.096 15.202-2.739 21.501-1.643-4.656 1.232-9.997 2.602-16.023 3.287-14.105 1.506-33.689 1.643-39.304 9.312 20.269-.274 43.55-2.328 60.942-7.121zm-22.596 227.881c15.338 10.271 36.702-6.025 33.552-24.24-.959-5.204-7.669-15.201-15.338-11.503-6.437 3.013-1.096 11.777 2.191 13.695-7.258 1.506-8.354-4.794-10.956-7.122-.959-.958-3.15-.684-4.382-1.643-3.15-2.465-3.15-5.752-3.287-9.86-2.876-2.328-4.93-7.532-3.287-12.6-8.627-5.614-16.297-11.914-20.953-21.5-1.369-.274-2.465-.822-4.382-.548-.274 2.465.822 5.478-.685 7.532-7.395-.137-10.682-3.424-15.338-4.793 3.287 8.217 7.532 15.612 9.312 25.335-2.876 0-6.436-.548-10.134-1.232 7.122 4.108 13.284 5.478 18.488 9.997 9.587 8.628 10.408 24.24 18.214 32.457 1.918 2.191 4.793 4.519 6.985 6.025zm75.458-213.776c0-1.232-4.108-2.054-6.437-1.917-19.72 2.876-40.81 9.86-65.05 14.927-2.465 4.794-11.23 7.67-36.428 9.724 4.656 1.917 5.752 2.876 6.3 2.876 5.888.958 14.105-.959 20.679-1.781 19.309-2.739 37.797-9.175 52.314-12.599-20.816 7.669-42.454 14.517-69.433 16.023-3.56.959 3.561 1.37-2.054 6.026-8.765 5.067-33.552 1.369-45.33 1.643 2.876 4.519 7.806 3.013 14.928 3.287 10.955.548 24.376.411 33.552-.548 15.064-1.506 30.265-5.889 41.358-8.765 11.23-3.012 21.09-6.573 30.813-11.503 9.724-5.204 21.638-9.997 24.788-17.393zm12.736-85.73c.959-1.506.548-1.916-.548-1.095-43.686 33.69-111.064 45.193-166.528 66.557-2.465.822-3.698 3.15-4.794 6.163-1.232 6.162-2.191 7.395-3.149 10.956-6.3 22.459-10.819 50.807-36.292 52.314-8.627.548-17.529-3.424-26.978-4.383-7.532-.821-7.259 6.026-11.504 5.478-6.847-.821-6.573 7.806-4.93 15.475-2.465-.41-3.835-2.875-6.026-2.739-5.889.274-13.832 14.654-8.764 18.762 5.477-.684 6.71-5.341 10.955-7.121 1.233 9.723 3.287 18.762 8.217 24.788 3.15-1.781 2.054-7.806 3.287-11.504 2.191 3.15.548 10.134 4.93 10.956 3.698-3.561 2.054-9.176 1.643-14.927-5.751.684-9.175-7.943-8.764-13.147 1.917 3.423 2.054 8.627 6.573 9.312-.137-8.08 3.15-12.873 6.574-17.666.685 3.834 2.602 6.573 5.478 8.217 2.054-1.918 3.834-4.246 4.93-7.122-2.465-.958-4.519-1.78-6.026.548.959-5.615-8.354-3.698-6.573-8.217 6.984 1.78 11.366 5.615 18.214 6.574 33.278 4.656 47.795-22.871 50.123-51.219 5.888-17.255 36.839-9.449 46.288-23.144-10.134-2.328-24.787-.548-34.1 1.095 10.408-6.025 24.788-3.012 37.935-3.834 17.118-1.233 31.498-6.847 40.81-14.927-12.462-5.478-30.539 5.751-45.193 2.739 20.132-2.055 40.674-6.985 55.601-13.147 25.199-10.682 54.779-23.556 68.611-45.741zM402.49 75.46c17.94-9.587 37.387-19.858 44.234-38.483-14.379 7.258-26.567 18.488-43.823 24.788-6.984 2.328-9.312 3.971-19.173 6.162-8.627 4.656-19.309 8.491-28.622 11.367-3.15.958-5.341 1.506-8.627 3.15 6.573 2.328 9.449.958 14.105-.411 19.173-5.204 41.221-13.832 56.697-22.597-17.393 12.189-40.674 20.132-63.133 26.98 8.353-.96 16.159 1.506 22.322.547 3.15-.548 8.628-3.56 13.284-5.478 4.519-1.917 9.449-4.382 12.736-6.026zm42.865-46.837c.411-.959.548-2.191-.548-1.095-12.188 14.653-33.415 20.13-47.384 33.004 19.584-7.121 38.209-14.927 47.932-31.909zm10.408 46.836c-4.245-.821-9.586-.821-12.599 0-16.023 4.793-31.361 15.886-46.289 21.501-9.449 3.424-19.309 5.204-30.265 8.217 1.917 1.643 2.465 3.561-1.644 6.847 20.68-5.204 41.222-11.914 58.888-20.13-23.418 13.694-54.231 20.541-82.99 29.032 2.876 2.328 3.697 3.972 3.971 5.752 42.18-11.778 89.153-19.31 110.928-51.219zm-4.93 165.707c.685 5.341-3.287 10.409-1.643 13.695 20.679-19.857-3.424-47.247-28.075-46.288 1.096-1.096 3.561-2.602 2.191-4.383-2.602.959-5.478 4.383-8.217 3.287 3.013-2.602 7.807-3.56 8.765-8.217-3.561 1.096-7.121 4.93-12.051 2.739 6.847-1.232 15.475-6.573 13.147-13.284-3.15.411-3.698 3.972-6.574 5.478-6.026 3.424-13.421 1.644-18.762 0-11.777-3.56-25.198-9.312-38.482-7.121-10.271 1.643-15.338 6.026-22.596 11.504-.137 1.643 3.56 2.191 2.191 3.286-2.055.411-2.328-.274-4.383-.547-1.917 1.506-2.328 1.917-3.286 4.793 2.054 2.876 6.299 6.847 4.93 11.229-3.424-.136-5.204-1.095-9.313-1.78-5.341 15.338 3.287 29.033 10.408 34.922-8.49-3.013-12.873-10.271-20.405-14.38 1.233 10.956 9.313 14.928 14.927 21.501-6.573-2.465-10.408-7.532-14.379-12.599.411 13.695 11.093 22.049 20.953 28.074 3.15-1.506 10.956-4.382 12.599.548-7.121-4.108-15.886 4.109-10.956 10.408 3.013-.822 3.287-7.258 6.026-6.573-3.835 4.245-6.71 18.488 2.191 19.309-.548-7.943.411-14.379 5.478-16.57-3.287 3.286-4.93 11.092-3.287 17.666 7.259-16.16 26.294-3.013 24.788 12.599-1.507 14.791-18.351 28.348-34.1 22.049-4.793-2.465-5.889-3.561-8.765-6.026-7.943-6.847-9.312-20.405-14.927-28.622-6.711-9.997-20.816-14.243-33.005-19.31.137 1.644.959 1.918.959 3.561-10.956 4.793-28.211-7.943-36.702-9.997 0 .821 0 2.876-2.191 2.054-18.488-6.847-30.54-21.501-43.687-34.1-.684.548-.821.822-1.643.548-11.23-2.602-14.79-17.941-21.912-26.431-.411 1.369-1.095 3.013-2.739 3.834-6.025-5.752-7.258-16.57-9.86-24.24-2.876.959-4.93 2.739-6.573 4.931 6.847 3.834 4.382 17.666-2.192 18.214.137-2.465-.547-4.246-2.191-4.93-3.971.547-6.299 10.134-5.478 15.475 5.615-1.918 17.53-4.109 19.31 1.643 2.191 7.121-7.943 8.217-13.695 9.86 7.806 2.739 19.036.685 23.144-3.834 1.096 4.108 5.204 5.067 5.478 9.86-2.054-1.643-2.465-4.93-5.478-5.478-7.943 2.739-20.542 4.93-25.883-1.643 6.026-1.096 12.052-2.191 14.928-6.574-2.602-5.204-14.791-3.56-18.215-1.643-6.71 3.834-11.777 8.901-19.309 11.503-13.832 5.068-32.32 6.985-44.645 12.6-1.507 5.204 1.232 12.462 2.739 15.475 2.328-2.054-.411-5.752 1.095-6.574 2.465 3.287 3.15 8.217 7.122 9.861.958-.685 0-3.287 1.643-3.287 1.78.411 2.739 1.643 3.834 2.739 22.186.821 48.891 8.354 69.433 9.86 10.545.822 11.504-6.163 20.405-4.382-1.095.821-2.328-.274-5.614 1.506-9.587 7.258-14.791 4.93-21.912 3.972.685 4.656 5.204 5.478 9.312 6.573-2.465 2.739-5.341 5.341-10.956 4.93 3.287 6.985 1.096 16.845-3.834 20.405 1.369-7.121-7.395-13.147-8.765-6.025-1.369 7.121 15.201 17.803 17.119 22.596 3.56-.137 8.627 3.698 11.503.548-.41-2.739-7.121-3.971-8.216-7.669 3.286 2.054 8.216 5.752 13.694 6.573 4.383.685 9.587.822 11.504-.547-4.108-2.055-8.354-4.109-10.956-7.669 5.752 4.656 13.695 6.162 24.24 6.573 12.325.548 26.02 1.233 35.196 1.096-6.026-4.383-19.173-2.329-25.884-4.383 11.093-1.369 21.501 0 31.909 3.835-1.506-4.383-9.175-5.478-10.408-8.217 7.395 1.506 10.956 6.71 16.571 9.86-1.37-5.889-6.3-8.08-8.765-12.599 17.119 10.134 14.791 28.485 19.858 46.836 5.067 18.488 19.857 30.813 33.004 40.126 5.615 3.971 12.052 7.532 17.119 11.504 9.723 7.943 12.188 27.937 8.217 40.125-6.437 3.972-18.899-1.095-20.406 8.217 1.781 1.37 5.478-2.328 7.669-.548-5.341.959-9.312 6.026-8.216 11.504 3.423-1.917 6.436-7.121 10.955-6.026-5.341 2.876-9.586 6.985-8.764 16.023 4.93-.548 8.08.822 10.408 2.739 1.232-5.204 3.697-9.175 7.669-11.503-2.739 3.971-6.437 9.586-4.383 16.57 6.574-3.013 12.737.822 13.284 7.122 6.163.821 9.587-1.096 12.6-3.287 2.602-4.246.958-8.354 3.834-12.599 2.191-3.424 7.943-4.246 9.86-7.122 1.644-2.328 2.466-7.258 1.644-10.408-1.78-7.258-8.08-19.035-10.956-26.978-2.465-6.848-2.465-20.68-1.096-27.527.548-2.602 2.465-4.656 2.739-7.669 1.096-9.997-7.532-13.695-12.188-17.666-2.465-.548-1.78 1.917-3.835 1.643-.41-1.506-.684-3.424-1.095-4.93-2.328-.685-2.465.822-3.835 1.095-.821-2.054.959-3.697-1.643-4.382-2.328 4.246-2.876 10.271-7.669 12.052 1.917-3.835 6.71-10.545 3.834-15.476-3.149 4.383-7.121 10.956-11.092 12.6 9.997-11.641 17.94-35.333 14.379-53.41 1.917 3.971 2.739 9.038 4.93 12.599 31.909 14.243 60.668-9.86 58.34-42.454-2.191-29.991-43.686-36.565-51.766-64.913-3.013-10.682-1.096-23.555 2.191-32.457 5.478-8.901 26.705-7.258 22.049 6.026 6.162-2.328 6.162-10.682 7.669-17.666 2.191 3.012.958 9.449 0 12.599 5.615-.411 3.834-8.217 7.121-10.956.822 1.917-.411 6.026-.548 8.765 5.752-.137 6.163-5.615 9.313-8.217-.411 2.191-2.191 5.204-1.096 7.121 4.109 1.643 8.491-3.971 10.956-3.834-.274 1.643-1.917 1.78-1.643 3.834 10.408 1.78 19.035 8.354 18.761 18.214-.41 10.545-10.271 13.832-17.118 19.31.959 3.56 4.245 4.93 8.217 5.478 2.465-1.918 2.739-6.026 6.573-6.574-5.478 4.383-10.271 22.871-.547 26.431-.548-5.067-.137-9.723 2.191-13.284-1.233 8.491-.822 19.173 3.834 23.692 1.507-5.478-.548-14.516 3.287-17.666-1.37 8.902-3.013 23.692 4.382 26.979-5.204-18.351 14.928-29.17 10.408-48.48 6.163 14.106-5.341 22.186-5.478 35.196 1.507.548 2.739 3.56 4.383 2.191-2.876-18.351 19.857-31.224 6.573-47.932.548 0 .685.411 1.096.548 2.328 3.013 4.793 4.93 5.204 9.175zm15.475-188.303c9.176-9.313 19.857-21.912 19.31-34.1-9.861 8.901-19.036 17.803-29.17 25.883-22.597 18.214-49.438 30.54-76.006 44.097 1.095.822 2.876.548 2.191 3.287 26.431-9.038 49.712-24.103 69.98-37.387-24.24 21.227-57.244 33.826-88.057 48.48 7.258-1.917 14.79-2.328 22.596-4.93 27.664-9.45 59.983-25.746 79.156-45.33zm-7.669-14.38c13.01-5.888 18.351-19.446 31.361-25.335-3.561 30.403-25.061 42.728-43.002 58.888 3.013 1.095 9.45-.137 13.695 1.095-11.914 16.982-28.759 28.896-49.575 36.839 3.287 1.644 6.71 2.054 9.312 3.835-12.462 15.338-32.73 22.596-52.314 30.813 3.972 3.013 11.367 2.602 16.023 4.93-8.901 8.491-20.131 14.791-34.648 17.667.822 3.012 4.52 3.149 6.574 4.93-8.354 6.847-20.679 9.86-33.005 12.599 3.698 4.656 9.587 7.258 13.147 12.051 10.682-6.984 17.667-13.284 34.648-12.051 6.574.411 12.463 2.054 18.214 3.834 7.259 2.329 13.147 6.574 22.049 5.478 6.437-.684 11.093-5.888 13.832-11.503 6.299 4.793 1.369 17.392 1.095 23.692 17.667 4.382 33.416 14.105 33.553 31.909.137 16.981-19.31 20.542-20.406 35.195-.274 3.972 2.191 8.354 3.287 10.956-6.3.274-7.806-4.245-10.956-7.121-4.382 7.121.822 19.72 8.217 22.048-11.777-.137-17.94-13.557-24.24-22.596-4.245-6.163-10.819-13.558-8.217-23.692-5.477-.822-7.395-5.204-10.408-8.217 7.122-5.478 18.625-8.217 18.762-19.31 0-7.532-9.449-16.022-18.762-16.57-3.286-.137-5.888 2.739-8.764.548-10.408 1.095-15.202 7.943-24.24 10.408 1.232-3.15 2.739-10.956-2.191-13.284-13.832-1.781-16.982 8.216-18.214 18.761-4.383 37.798 43.96 46.152 52.314 74.911 1.643 5.752.958 12.599 0 17.119-3.835 19.309-14.243 39.167-39.715 39.167-8.354 0-14.517-2.876-22.049-4.93 1.507 9.038-5.752 17.803-2.739 26.431 3.287.41 2.602-3.287 6.026-2.739 1.232 2.602.548 3.834.548 7.121 1.506 1.917 2.465-1.096 4.382-.548.685 1.78 0 1.233 0 3.287 4.93 5.478 16.023 7.532 14.38 20.405-.959 7.121-4.109 13.969-3.835 21.501.137 3.834.822 8.628 1.643 12.051 2.602 10.545 10.272 19.447 11.504 28.622 1.643 11.504-6.3 15.339-11.504 18.215-2.328 9.175-3.971 16.844-13.831 17.666-1.233.137-3.424-.959-4.93-.548-5.341 1.37-6.711 7.669-3.835 13.832-10.134 0-14.106-11.23-11.504-20.405-7.395-1.644-9.038 7.121-9.86 13.694-8.217-2.465-7.806-16.844-3.287-23.144-3.697-3.424-6.299 2.054-7.121 4.93-5.889-2.602-1.369-8.354-1.095-12.599.136-2.328-1.507-4.245-1.096-6.573.685-4.246 4.793-4.52 7.121-7.67 1.781-2.328.548-4.793 2.739-6.025 6.437-3.698 17.256 1.506 19.31-6.574 2.054-7.943-.548-22.459-3.287-26.979-3.15-5.204-11.093-9.312-18.214-14.927-11.641-9.175-24.651-17.392-31.361-30.813-7.532.958-15.886 1.78-22.596-.548-2.192 1.506 2.328 2.602.547 3.835-5.478-.274-9.86-1.507-14.927-2.192 0 2.602 2.465 2.602 4.382 3.287-5.752.822-15.475-1.917-16.57 4.93 5.204 9.039 8.08 21.227-2.739 25.883-9.039 3.972-15.065 5.889-22.049 10.956-6.163 4.52-10.819 11.23-18.214 18.214-3.424 3.15-9.449 7.943-11.504 8.765-9.038 3.561-16.57-1.917-22.596-2.739-5.341-.822-11.367 2.328-18.214 1.643-12.462-1.369-17.53-18.624-26.979-4.93-2.876-9.86 4.793-13.968 9.86-17.666-1.643-2.876-5.341.137-7.121.548 1.78-8.491 8.08-12.599 12.599-18.214h4.93c3.013-.685 3.287-4.109 5.478-5.478 7.532.822 10.682-2.328 17.119-1.096 6.162 1.233 8.354 9.176 13.147 9.861 6.984 1.095 13.147-5.478 18.625-8.491-1.233-1.507-2.876-.685-5.478-4.109 8.627-1.917 20.405-2.054 20.953-10.408.548-9.175-14.38-16.981-17.119-25.883-5.204-17.529 12.326-24.24 22.049-32.457-4.245-.41-7.943 1.096-12.599-.547-4.109 3.149-11.504 2.328-16.571.547.137 5.341 1.917 16.708-2.739 20.406 1.37-14.517-10.682-15.749-19.31-20.406 1.233 6.437 7.259 8.217 10.408 12.6-19.309-2.192-31.635-11.367-31.361-33.005-5.341 1.781-10.134 3.698-16.57 1.644 3.149-4.657 7.669-8.491 7.669-14.928 0-13.147-20.269-20.679-24.788-30.813-1.37 1.369-3.56 5.478-3.287 3.287.137-1.096-1.643-3.835-1.643-3.835-5.478-.274-10.682-.411-12.051 3.287 2.19 10.682 19.31 16.023 11.503 29.718 3.424 9.175-3.013 16.707-10.956 18.214 3.424-3.15 4.657-12.052 1.096-16.023-3.287-.822-5.615-2.465-7.121-4.93-1.644-5.204.547-9.039 0-13.01-.959-6.985-7.806-13.147-16.434-11.778-8.628 1.37-21.227 18.214-28.075 4.382-6.71-.684-10.407 1.781-14.379 3.835-1.37-5.341 2.876-9.86 7.532-11.093-2.602 2.191-5.752 3.698-6.436 7.806 4.93-3.287 12.599-3.424 12.599-5.478-.274-2.328-2.602-2.876-5.478-2.191.685-2.054 3.971-1.506 5.478-2.739-4.382-3.697-6.984-12.873-14.38-13.147-3.15-.137-6.573 2.054-8.764 2.739-1.096-7.806 3.15-8.902 8.08-9.175-3.013.547-5.752 2.054-5.89 4.108 7.944-2.602 13.559 1.096 13.833-.548.137-2.191-1.644-3.287-3.835-3.697 1.095 0 2.328 0 3.287-.137 2.19-.274 3.834-2.055 5.478-2.192 9.038-.547 12.873 8.902 20.405 8.217-3.15-9.038-13.558-10.682-23.692-12.599-1.78-6.984-9.723-12.051-18.762-8.217 1.37-5.615 6.437-6.299 11.777-6.436-2.875.411-5.751 1.643-6.162 3.697 5.067-.274 7.806-.137 11.093 1.37.821.548 2.465.137 2.739-.822.137-2.602-1.918-3.834-4.52-4.245 1.78 0 3.561 0 5.067-.137 3.698-.411 5.615-2.602 9.86 0 4.11 2.465 7.807 9.312 12.052 14.379 4.793 5.478 9.997 9.039 13.832 12.052 12.051.821 27.252 1.643 34.648-3.835-.274-7.532 3.56-10.819 6.025-15.338-4.519-3.698-11.914-6.984-10.408-14.927-2.602-1.507-6.162-1.918-7.12-4.93 3.697-3.013 2.601-8.628.547-12.6-2.74.411-5.615.822-8.217 0-1.233-1.506 1.506-2.054 1.643-3.834-4.656-3.15-10.682-5.067-14.927-8.765-8.217 2.602-14.653 15.612-26.431 9.86-3.013-1.506-9.312-8.49-12.051-11.503-3.424-3.835-7.532-11.367-1.096-16.023.822 4.93 3.013 10.134 8.217 10.956 1.506.274 3.287-1.096 4.93-1.096 5.752 0 9.312 6.163 13.695 2.739 9.038-6.847-5.204-23.555 2.191-33.004-1.643-6.985-11.23-6.026-16.57-9.313-1.918-5.889-8.491-15.338-16.024-8.765-1.37-.958.822-3.56 1.78-4.93 7.396-.684 12.6 3.013 13.695 2.191 1.507-1.232-1.095-2.465-2.19-4.382 5.34 1.78 10.407-1.506 15.2 2.328 1.507-1.232 1.37-3.287 3.561-4.108 0-6.163-6.026-6.437-9.312-9.313 3.56.548 3.971-.958 7.395-.821-.274 1.095-2.602.547-2.465 1.369.137.137.41.274.685.274 6.025 2.191 5.888 6.437 6.984 7.121 1.917.959 3.013-1.232 2.191-3.56-2.191-2.739 2.328.684 2.74 3.423 2.601.411 3.56 2.739 5.477 3.835 2.054-1.917.548-5.341 0-7.669 4.793.411 7.258 7.395 4.52 11.777 5.203 8.628-.412 18.351-5.068 23.418-.137 3.424 2.74 7.396 3.835 12.052.548 2.328-.274 5.204.548 7.121 1.506 3.835 9.449 8.765 10.955 8.765 1.918 0 3.561-.685 3.835-3.287 1.095.959.274 3.835 2.191 3.835 3.013.684 3.15-1.507 5.478-1.644 0 10.682 14.79 5.752 20.405 9.313 1.507-1.233 2.739-2.739 3.835-4.383-2.602-6.71-3.561-15.749.548-21.5 7.806-11.093 30.676-10.819 37.934-20.953 6.985-9.587-4.93-22.46-17.666-15.476v-5.478c-10.682 2.739-25.472 11.778-35.743 4.931 10.134-2.329 17.529-7.396 24.239-13.147-4.519-3.972-14.653-.685-18.762 1.095 3.424-5.204 11.093-6.162 18.215-7.669.958-5.889-11.093-8.08-14.928-3.287-10.956-7.806-18.214 6.3-19.31 17.119-15.748-10.819-8.216-35.88 8.217-43.002 1.918-.822 4.246-.959 6.026-1.643 4.245-1.78 8.765-4.93 15.475-2.191 2.876-1.918 4.656-4.93 4.93-9.313 3.287 3.972 7.259-2.602 10.408-3.834 6.711 2.602 14.243.137 16.571-4.93 2.054 1.369 1.507 2.875.548 4.93 3.013.41 7.532 1.095 9.86.547 6.848-8.627 5.204-25.609 10.408-35.743 4.109 11.093 10.545 19.857 14.38 31.361 17.255-7.395 24.513-24.925 42.454-31.909.41 6.848-1.233 15.886-3.287 22.049 1.095-.137 1.232 2.328.685 5.34-2.055 10.409-7.806 18.078-11.093 26.02.548.686 3.424 1.233 4.93.686.274 1.917-4.656 10.545 1.096 11.503-1.37 2.055-3.561 3.424-4.383 6.026 1.096 1.233 2.876 1.233 4.383.548-3.972 2.328-4.794 9.86 2.739 8.764-6.3 2.739-8.628 11.23-1.644 14.928 27.664-19.858 44.097-50.945 52.862-89.701 5.204 13.832-1.917 31.635-2.739 43.002C288.139 54.367 300.464 27.115 312.652 0c-.684 21.09-7.943 40.537-12.599 59.435 3.15-.958 4.93-4.93 9.039-10.681 3.697-5.068 3.149-5.204 9.175-9.724 1.644 4.656-1.643 8.902-1.643 13.832 9.86-8.354 16.571-19.858 25.335-29.17 5.341-5.752 11.093-11.23 16.571-17.119-6.984 20.269-14.38 40.263-22.049 59.984 19.036-4.52 34.785-10.545 52.588-18.077 19.036-8.902 36.428-18.488 50.945-32.046-2.602 8.217-10.682 15.612-15.338 23.692 10.819-3.287 17.94-15.064 26.979-22.049-.274 5.204-4.246 11.504-6.574 16.57 4.656-2.875 6.437-2.464 3.287 5.479 5.752-2.465 9.997-6.574 14.379-10.408.685 3.013-3.971 5.067-4.108 8.764zM243.904 176.115c.959-1.643.137-5.752.685-7.669-1.232.548-.958.959-3.287 2.876-1.369.959-1.643.959-3.286 2.054 2.876 1.507 3.971 3.013 5.888 2.739z"/><path d="M340.727 396.875c5.614 1.644 5.477 14.654 4.382 19.31.274-8.08-2.876-12.736-4.382-19.31zm-43.961-4.382c-7.395-3.013-13.832-11.915-16.571-21.501 5.204 7.532 10.545 14.927 16.571 21.501zm-92.578-47.932c-4.245 3.15-7.395 7.395-12.051 9.861 1.232-5.889 6.984-7.533 12.051-9.861zm-26.977-82.032c1.095-3.013-.959-3.834-.548-6.573 7.943 7.806-2.876 12.462-12.052 13.694 3.561-2.876 9.861-3.149 12.6-7.121zM15.339 227.608h-3.013a11.094 11.094 0 013.013 0zm-5.614 21.5c1.37-.274 2.876-.274 4.108 0-1.37 0-2.876-.137-4.108 0zm7.94 22.049c-1.37.822-3.15 2.191-3.15 2.191l1.644-.137s1.643-1.095 2.054-1.232c.822-.411 1.78-.685 2.191-.685.411-.137.548-1.232.411-1.232-.684.136-2.465.821-3.15 1.095z"/><path d="M16.57 248.835c-.274 0-4.246-.548-7.533-.137-2.876.411-3.697.822-4.656 1.369-.41.137.959.685 1.233.411.273-.137 2.602-1.232 5.751-1.232.822 0 4.52.137 5.478.958.548.685 0-1.369-.274-1.369zM8.078 228.84c.41-.274 2.328-.958 5.341-.821 1.917 0 4.93.684 5.889 1.506.684.685-.274-2.054-.548-2.054s-3.698-.411-7.395-.274c-1.917.137-5.341 1.095-6.163 1.369-.548.274 2.74.411 2.876.274zM219.664 37.387c.958 1.917-1.644 4.93-3.835 5.478 3.013 5.204-7.669 8.627-1.095 12.051-1.918 2.191-5.204 3.15-6.574 6.026-.274 1.095 2.465 1.78 2.739.548.137 2.602-6.026 3.423-6.573 7.12 1.78 1.918 3.012-1.369 4.93-1.095-1.918 2.876-5.615 3.835-8.217 6.026-.137 1.37.821 1.78 1.643 2.191-3.424 3.013-11.914 9.039-15.475 2.191 3.698 0 6.026-1.37 7.121-3.834.274-.548.274-.548-.547-1.096-.959-.684-1.918-.274-2.739-.548 3.56-3.15 8.627-4.656 11.503-8.216-.548-2.192-2.602.136-4.93-.548 2.328-1.233 5.067-1.917 6.574-3.835.41-1.78-.959-2.054-2.192-2.191 1.37-1.096 2.876-1.917 4.383-2.739-2.191-5.615 8.764-5.752 4.93-10.956 3.287-1.643 6.163-3.834 8.354-6.573z"/><path d="M164.611 84.77c3.697-.684 9.312-1.095 12.051.549-5.204.547-11.367-1.096-13.147 4.382-1.78-1.506 1.096-3.287 1.096-4.93z" stroke="#fff" stroke-width=".006" stroke-miterlimit="22.926"/><path d="M154.204 81.484c0 2.328.959 3.835.548 6.574-1.096 3.697-7.806 4.519-9.861 1.095.548-2.602 6.026-3.013 4.931-5.478-5.204-2.054-9.176 1.78-8.217 6.574 2.328 11.777 27.115-.822 12.599-8.765zm7.121-2.739c-.411 1.233-3.15.274-4.382.548-.274 2.602 1.78 3.013 2.739 4.382 2.739 14.928-16.434 15.886-20.405 6.574-1.781 0-1.781.821-2.192 1.643-.958 1.37.548-2.602 1.096-3.287-1.233-.958-4.108-.273-5.478-1.095-1.232-2.191.274-3.835 1.096-5.478.821 1.232-.137 1.917-.548 3.287 0 1.232.274 1.506 1.095 1.643 6.574.41 7.122-4.93 9.861-8.217 5.341-1.37 11.914-2.328 17.118 0zm-50.124 14.243c-2.465-.822-3.972-2.74-4.383-5.478 1.918-.548 4.383 2.465 4.383 5.478zm-61.628 22.596c-1.644-.958-3.013-1.369-4.52-1.369-.547 0-1.643.822-1.37.822.686-.137 3.15-.274 5.068.821.959.548 1.78 1.096 2.602 1.917 1.506 1.507 1.917 2.876 1.643 3.972-.274.685 2.191 0 2.191 0s-.958-2.054-2.601-3.835c-.548-.684-1.37-1.506-3.013-2.328zm-20.128 10.819c-.274-.137-1.506-.411-2.191-.548-.137 0-1.507-.137-2.602-.137-1.096 0-2.74.137-3.56.274-.823.137-1.781.548-2.877 1.233-.685.411-1.37 1.506-1.37 1.506s3.972-.548 3.698-.548c-.41 0-1.37-.411-.684-.958.547-.548 1.232-.685 1.917-.822.685-.137 1.917-.137 3.15-.137 1.506.137 2.465.274 2.739.411 1.095.274 2.876 1.506 3.012 1.643.137.274-1.095-1.917-1.232-1.917zm153.104-73.678c-.684.137-2.054 2.465-2.191 3.424-.137.959.274 2.054.959 2.054.685 0 3.287-.137 3.424-1.095.41-3.013-.685-4.656-2.192-4.383z"/></g></svg>